<?xml version="1.0" standalone="no"?>
<!DOCTYPE svg PUBLIC "-//W3C//DTD SVG 1.1//EN" "http://www.w3.org/Graphics/SVG/1.1/DTD/svg11.dtd" >
<svg xmlns="http://www.w3.org/2000/svg" xmlns:xlink="http://www.w3.org/1999/xlink" version="1.1">
<metadata></metadata>
<defs>
<font id="dfutmedium" horiz-adv-x="995" >
<font-face units-per-em="2048" ascent="1536" descent="-512" />
<missing-glyph horiz-adv-x="665" />
<glyph horiz-adv-x="0" />
<glyph horiz-adv-x="682" />
<glyph unicode=" "  horiz-adv-x="665" />
<glyph unicode="&#x09;" horiz-adv-x="665" />
<glyph unicode="&#xa0;" horiz-adv-x="665" />
<glyph unicode="!" horiz-adv-x="370" d="M0 74q0 46 34 80t81 34t80.5 -34t33.5 -80q0 -47 -33.5 -81t-80.5 -34t-81 34t-34 81zM27 336v1151h178v-1151h-178z" />
<glyph unicode="&#x22;" horiz-adv-x="747" d="M0 991l264 531l111 -45l-219 -547zM330 991l262 531l113 -45l-220 -547z" />
<glyph unicode="#" horiz-adv-x="1210" d="M0 418v157h227l56 308h-209v157h235l72 385h154l-72 -385h246l69 385h156l-70 -385h185v-157h-213l-54 -308h201v-157h-233l-76 -418h-150l74 418h-246l-78 -418h-149l74 418h-199zM383 575h244l53 308h-244z" />
<glyph unicode="$" horiz-adv-x="1017" d="M0 381l178 39q27 -130 92 -197t193 -84v596l-72 35q-53 27 -91 50t-77.5 56.5t-63.5 69t-39.5 84t-15.5 105.5q0 148 105 263.5t254 127.5v178h98v-178q111 -10 198 -70.5t142 -161.5l-158 -88q-31 58 -74 92.5t-108 53.5v-465q84 -37 147 -75.5t120.5 -93t88.5 -127.5 t31 -161q0 -163 -114 -302.5t-273 -162.5v-188h-98v188q-175 3 -305.5 123t-157.5 293zM279 1147q0 -81 49 -130t135 -83v418q-79 -11 -131.5 -68.5t-52.5 -136.5zM561 152q91 22 150 98.5t59 171.5q0 92 -56 154.5t-153 113.5v-538z" />
<glyph unicode="%" horiz-adv-x="1466" d="M0 1184q0 142 103 242t245 100q143 0 246.5 -100t103.5 -242q0 -140 -104 -240t-246 -100q-141 0 -244.5 100t-103.5 240zM119 1184q0 -90 68 -155.5t161 -65.5q94 0 163 65.5t69 155.5q0 92 -69 156.5t-163 64.5q-93 0 -161 -64.5t-68 -156.5zM186 14l875 1512l90 -53 l-872 -1508zM641 305q0 141 103 240.5t245 99.5q143 0 246.5 -99t103.5 -241q0 -140 -104 -240t-246 -100q-141 0 -244.5 100t-103.5 240zM760 305q0 -90 68 -155.5t161 -65.5q94 0 163 65.5t69 155.5q0 92 -69 156.5t-163 64.5q-93 0 -161 -64.5t-68 -156.5z" />
<glyph unicode="&#x26;" horiz-adv-x="1357" d="M0 410q0 68 19.5 126t59.5 107t80.5 84.5t102.5 79.5l92 67q-164 172 -164 328q0 150 98 239t249 89q143 0 243.5 -85.5t100.5 -227.5q0 -48 -17.5 -95t-41 -81.5t-65.5 -74.5t-71.5 -63t-77.5 -59l314 -377l174 203l118 -123l-182 -215l268 -332h-231l-162 203 q-90 -106 -206 -170t-242 -64q-191 0 -325 125.5t-134 315.5zM174 412q0 -107 86 -192t193 -85q49 0 96.5 16.5t94.5 50.5t76.5 60t76.5 72l-332 405l-19 -12q-10 -7 -40.5 -28t-46 -32t-44 -33.5t-44.5 -38t-37 -39.5t-32.5 -45t-19.5 -47t-8 -52zM365 1223q0 -26 7 -51 t23 -51.5t26.5 -40.5t33.5 -44l49 -63l24 16q5 4 38 29t43.5 33.5t35 32.5t34 41t19 42.5t9.5 51.5q0 77 -49.5 120t-125.5 43q-69 0 -118 -44.5t-49 -114.5z" />
<glyph unicode="'" horiz-adv-x="434" d="M0 991l264 531l111 -45l-219 -547z" />
<glyph unicode="(" horiz-adv-x="430" d="M0 606q0 261 51.5 526t155.5 467l145 -108q-88 -185 -129 -417t-41 -468q0 -238 41 -469t129 -416l-145 -110q-104 205 -155.5 471t-51.5 524z" />
<glyph unicode=")" horiz-adv-x="452" d="M0 -279q88 185 129 416t41 469q0 236 -41 468t-129 417l147 108q103 -203 154 -468t51 -525q0 -258 -51 -524t-154 -471z" />
<glyph unicode="*" horiz-adv-x="684" d="M0 1073l168 98l-166 99l61 114l177 -98v195h137v-189l162 97l67 -119l-168 -99l168 -100l-67 -115l-162 101v-191h-137v193l-172 -98z" />
<glyph unicode="+" horiz-adv-x="1083" d="M0 424v170h422v424h172v-424h422v-170h-422v-424h-172v424h-422z" />
<glyph unicode="," horiz-adv-x="475" d="M0 -315l219 546l154 -61l-264 -530z" />
<glyph unicode="-" horiz-adv-x="507" d="M0 557v148h434v-148h-434z" />
<glyph unicode="." horiz-adv-x="331" d="M0 86q0 46 34 80.5t81 34.5t80.5 -34.5t33.5 -80.5q0 -47 -33.5 -81t-80.5 -34t-81 34t-34 81z" />
<glyph unicode="/" horiz-adv-x="1064" d="M0 -193l825 1911l144 -63l-828 -1911z" />
<glyph unicode="0" horiz-adv-x="1181" d="M0 748q0 80 12 164.5t37 173.5t67.5 167.5t98 140.5t135 98t172.5 36t172.5 -36t135 -98t98 -140.5t67.5 -167.5t37 -173.5t12 -164.5t-12.5 -164.5t-37 -173.5t-67.5 -167.5t-98.5 -140.5t-134.5 -98.5t-172 -36.5t-172 36.5t-134.5 98.5t-98.5 140.5t-67.5 167.5 t-37 173.5t-12.5 164.5zM178 750q0 -68 9.5 -144t34.5 -162t62.5 -154t99.5 -112.5t138 -44.5t138 45t99 112.5t61.5 153.5t34 162t9.5 144t-9.5 144t-34 162.5t-61.5 154t-99 112.5t-138 45q-64 0 -118 -31t-90.5 -83.5t-64 -116.5t-42.5 -135.5t-22 -133.5t-7 -118z" />
<glyph unicode="1" horiz-adv-x="669" d="M0 1327l102 170h336v-1497h-178v1327h-260z" />
<glyph unicode="2" horiz-adv-x="1077" d="M0 0l655 805q41 51 64 83.5t46 85.5t23 99q0 116 -88 200.5t-206 84.5q-113 0 -196 -80t-91 -193h-187q22 202 148 323.5t326 121.5q126 0 234.5 -57.5t173.5 -161t65 -230.5q0 -173 -111 -309l-494 -600h605v-172h-967z" />
<glyph unicode="3" horiz-adv-x="1050" d="M0 360h180q13 -107 97 -173t194 -66q123 0 204 85.5t81 209.5q0 141 -88.5 220.5t-227.5 68.5v155q86 0 149 21.5t103.5 77t40.5 141.5q0 113 -73.5 184.5t-184.5 71.5q-100 0 -167.5 -58.5t-82.5 -156.5h-184q28 185 140.5 282t297.5 97t309.5 -110.5t124.5 -293.5 q0 -230 -190 -338q105 -51 158 -148t53 -222q0 -137 -63.5 -240t-171 -156t-242.5 -53q-183 0 -315.5 111t-141.5 290z" />
<glyph unicode="4" horiz-adv-x="1191" d="M0 219l918 1342v-1178h169v-164h-169v-219h-181v219h-737zM313 383h424v616h-4z" />
<glyph unicode="5" horiz-adv-x="1132" d="M0 227l139 131q33 -94 131.5 -158.5t200.5 -64.5q150 0 255 108.5t105 260.5q0 145 -105.5 249.5t-250.5 104.5q-80 0 -155.5 -35.5t-124.5 -97.5h-37l231 768h600v-170h-471l-94 -307l106 4q105 0 196 -43t152.5 -115t96.5 -167t35 -197q0 -154 -74 -276.5t-200 -189.5 t-279 -67q-141 0 -266.5 70t-190.5 192z" />
<glyph unicode="6" horiz-adv-x="1122" d="M0 442q0 103 43 196.5t119 197.5l510 688l135 -92l-397 -541l4 -2q75 35 145 35q119 0 219.5 -66.5t156.5 -174t56 -228.5q0 -134 -66 -247t-179.5 -179t-247.5 -66q-128 0 -242.5 64t-185 175t-70.5 240zM178 444q0 -128 95 -221.5t223 -93.5q127 0 222 91t95 216 q0 136 -96.5 229t-220.5 93q-122 0 -220 -96t-98 -218z" />
<glyph unicode="7" horiz-adv-x="1114" d="M0 53l774 1268h-774v170h1077l-932 -1528z" />
<glyph unicode="8" horiz-adv-x="1050" d="M0 410q0 124 62 221.5t174 136.5q-93 53 -145 140t-52 196q0 181 124 299.5t306 118.5q181 0 304.5 -118.5t123.5 -299.5q0 -109 -52 -196t-145 -140q113 -39 174.5 -136.5t61.5 -221.5q0 -203 -135 -326t-332 -123q-128 0 -234 53t-170.5 157t-64.5 239zM178 410 q0 -112 89.5 -197.5t201.5 -85.5q110 0 199.5 85.5t89.5 197.5q0 117 -87 199.5t-202 82.5q-116 0 -203.5 -82.5t-87.5 -199.5zM215 1104q0 -90 80.5 -172t173.5 -82t173.5 82t80.5 172q0 106 -76 182t-178 76t-178 -76t-76 -182z" />
<glyph unicode="9" horiz-adv-x="1087" d="M0 1030q0 205 145 349.5t349 144.5q95 0 186 -38.5t159.5 -102.5t110 -153t41.5 -186q0 -104 -43 -199t-119 -196l-510 -686l-135 94l400 537l-4 4q-54 -29 -146 -29q-120 0 -221 65.5t-157 171t-56 224.5zM178 1042q0 -129 99 -221t219 -92q138 0 227.5 93.5t89.5 219.5 q0 121 -92.5 217.5t-212.5 96.5q-134 0 -232 -93.5t-98 -220.5z" />
<glyph unicode=":" horiz-adv-x="321" d="M0 78q0 46 34 80.5t81 34.5t80.5 -34.5t33.5 -80.5q0 -47 -33.5 -81t-80.5 -34t-81 34t-34 81zM0 836q0 46 34 81t81 35t80.5 -35t33.5 -81q0 -47 -33.5 -81t-80.5 -34t-81 34t-34 81z" />
<glyph unicode=";" horiz-adv-x="563" d="M0 -307l219 547l154 -62l-264 -530zM174 844q0 46 34 81.5t81 35.5t82 -35.5t35 -81.5q0 -47 -35 -81t-82 -34t-81 34t-34 81z" />
<glyph unicode="&#x3c;" horiz-adv-x="1101" d="M0 455v137l1016 412v-187l-762 -293l762 -295v-186z" />
<glyph unicode="=" horiz-adv-x="1073" d="M0 256v170h1016v-170h-1016zM0 596v172h1016v-172h-1016z" />
<glyph unicode="&#x3e;" horiz-adv-x="1228" d="M0 49v187l762 294l-762 293v187l1016 -412v-137z" />
<glyph unicode="?" horiz-adv-x="847" d="M0 1186q-6 94 45 173t134.5 122t176.5 43q151 0 254 -101.5t103 -251.5q0 -70 -28 -136t-79 -109q-31 -26 -78.5 -49.5t-78 -33.5t-89.5 -28q-31 -10 -53.5 -20.5t-45 -27t-34.5 -41t-12 -56.5q0 -61 39.5 -102.5t99.5 -41.5q62 0 102 45t40 109h180q4 -84 -41.5 -159 t-121.5 -118t-159 -43q-134 0 -226.5 92.5t-92.5 225.5q0 54 15 98t36.5 72.5t57.5 53t66 38t75 29.5q11 4 45.5 17t46 17.5t39.5 17.5t39.5 21.5t30 24t26 30.5t14 36t6.5 45q0 80 -51 128t-131 48q-70 0 -121 -50.5t-51 -119.5q0 -18 12 -64h-186zM240 78q0 46 33.5 80.5 t80.5 34.5t81 -34.5t34 -80.5q0 -47 -34 -81t-81 -34t-80.5 34t-33.5 81z" />
<glyph unicode="@" horiz-adv-x="1554" d="M0 745q0 218 101 397.5t275 281.5t382 102q275 0 467 -174q221 -192 221 -457q0 -124 -32 -234t-91 -186q-67 -90 -148 -132.5t-157 -39.5q-41 2 -69.5 34t-37.5 89q-123 -123 -270 -123q-133 0 -233.5 108t-100.5 259q0 90 29.5 175t81 151.5t129 106.5t166.5 40 q153 0 264 -142l27 123h141l-98 -510q-19 -94 -17 -121q3 -49 43 -49q46 0 96 53t84.5 143.5t34.5 184.5q0 244 -152 392.5t-384 148.5q-164 0 -301 -83.5t-215 -226t-78 -311.5q0 -178 86 -321.5t229.5 -222t312.5 -78.5q253 0 369 96l150 -119q-126 -68 -241.5 -101.5 t-293.5 -33.5q-211 0 -387 100t-279.5 279.5t-103.5 400.5zM463 684q0 -92 55 -159.5t144 -67.5q64 0 113 23t79.5 63t48 87.5t23.5 104.5q15 118 -41 185t-160 67q-115 0 -188.5 -94t-73.5 -209z" />
<glyph unicode="A" horiz-adv-x="1544" d="M0 0l713 1556l712 -1556h-200l-170 375h-686l-168 -375h-201zM449 545h528l-264 604z" />
<glyph unicode="B" horiz-adv-x="1075" d="M0 2v1495h182q91 0 166 -10t148 -38t122.5 -72.5t80 -118t30.5 -171.5q0 -87 -43 -167.5t-117 -114.5v-6q129 -23 215 -134t86 -243q0 -109 -44 -192t-119 -131.5t-165.5 -72.5t-193.5 -24h-348zM186 168h144q55 0 103 7t95 25.5t80 47.5t53.5 76t20.5 108 q0 60 -24 106.5t-61.5 73.5t-89.5 44.5t-101.5 23.5t-104.5 6h-115v-518zM186 836h47q58 0 102 5.5t87.5 21t71.5 42.5t45.5 72.5t17.5 107.5q0 61 -17 105.5t-44.5 71.5t-70 42.5t-86 21t-99.5 5.5h-54v-495z" />
<glyph unicode="C" horiz-adv-x="1402" d="M0 741q0 163 63 310t170 251.5t253.5 166t308.5 61.5q215 0 379 -100v-218q-82 70 -186 109t-210 39q-164 0 -301 -83.5t-214 -223.5t-77 -303q0 -162 77 -302.5t213 -224.5t298 -84q220 0 400 156v-219q-85 -50 -190 -77.5t-204 -27.5q-157 0 -301 60t-249 162.5 t-167.5 245.5t-62.5 302z" />
<glyph unicode="D" horiz-adv-x="1323" d="M0 0v1493h309q139 0 263 -28.5t229.5 -88t182 -145.5t120 -207.5t43.5 -267.5q0 -150 -42.5 -274t-119 -212.5t-182.5 -149.5t-232.5 -90.5t-269.5 -29.5h-301zM186 172h66q118 0 219.5 17.5t193.5 60t156 107t102 163.5t38 225q0 127 -38 227t-102 165t-156 107.5 t-193.5 60.5t-219.5 18h-66v-1151z" />
<glyph unicode="E" d="M0 0v1493h803v-170h-617v-418h598v-170h-598v-563h617v-172h-803z" />
<glyph unicode="F" horiz-adv-x="921" d="M0 0v1493h723v-170h-537v-420h519v-170h-519v-733h-186z" />
<glyph unicode="G" horiz-adv-x="1648" d="M0 741q0 211 103 391t281.5 286t389.5 106q174 0 336 -76.5t270 -212.5l-131 -125q-79 110 -205.5 176t-261.5 66q-164 0 -301.5 -81t-216 -219.5t-78.5 -303.5q0 -155 77 -295.5t211.5 -227t291.5 -86.5q115 0 226 58.5t185 162t78 222.5h-385v170h592v-60 q0 -203 -89 -368.5t-251 -261t-366 -95.5q-154 0 -294.5 63t-241.5 168t-160.5 247.5t-59.5 295.5z" />
<glyph unicode="H" horiz-adv-x="1230" d="M0 2v1495h186v-602h713v602h184v-1495h-184v719h-713v-719h-186z" />
<glyph unicode="I" horiz-adv-x="403" d="M0 2v1493h186v-1493h-186z" />
<glyph unicode="J" horiz-adv-x="845" d="M0 35l92 158q69 -50 150 -50q34 0 62 9t48.5 22.5t36.5 37.5t26 44.5t17.5 54t11 56.5t5.5 60t2 56.5v55.5v8v948h186v-948q0 -96 -8.5 -172t-34 -155t-68.5 -131.5t-117.5 -86t-175.5 -33.5q-122 0 -233 66z" />
<glyph unicode="K" horiz-adv-x="1177" d="M0 0v1493h186v-647l633 647h244l-672 -670l684 -823h-250l-563 696l-76 -71v-625h-186z" />
<glyph unicode="L" horiz-adv-x="778" d="M0 0v1493h186v-1321h453v-172h-639z" />
<glyph unicode="M" horiz-adv-x="1763" d="M0 2l303 1559l514 -1178l514 1178l305 -1559h-192l-176 987h-2l-449 -1018l-448 1018h-2l-174 -987h-193z" />
<glyph unicode="N" horiz-adv-x="1595" d="M0 6v1563l1120 -1174v1104h187v-1554l-1121 1173v-1112h-186z" />
<glyph unicode="O" horiz-adv-x="1744" d="M0 745q0 157 62.5 301t167.5 248.5t249.5 167t302.5 62.5t302.5 -62.5t249 -167t167 -248.5t62.5 -301q0 -163 -61.5 -307.5t-166.5 -247.5t-249 -163t-304 -60q-213 0 -392 101.5t-284.5 280.5t-105.5 396zM186 745q0 -167 81 -306.5t218 -218.5t297 -79q159 0 296 79 t218.5 218.5t81.5 306.5q0 163 -75 301t-212.5 221t-308.5 83t-308.5 -83t-212.5 -221t-75 -301z" />
<glyph unicode="P" horiz-adv-x="942" d="M0 0v1493h215q169 0 286.5 -28.5t186 -85.5t98 -134t29.5 -184q0 -114 -41 -200t-114 -136t-164.5 -74t-202.5 -24h-107v-627h-186zM186 793h60q63 0 114 5.5t105.5 22.5t91 46t60.5 79.5t24 118.5t-25.5 117.5t-63 77t-95 43t-107 20t-112.5 4.5h-52v-534z" />
<glyph unicode="Q" horiz-adv-x="1767" d="M0 745q0 157 62.5 301t167.5 248.5t249.5 167t302.5 62.5t302.5 -62.5t249 -167t167 -248.5t62.5 -301q0 -159 -60.5 -302t-171.5 -248l230 -228h-226l-127 133q-91 -63 -204.5 -98t-221.5 -35q-213 0 -392 101.5t-284.5 280.5t-105.5 396zM186 745q0 -167 81 -306.5 t218 -218.5t297 -79q72 0 152 22.5t145 63.5l-342 334h232l233 -233q83 75 129.5 190t46.5 227q0 163 -75 301t-212.5 221t-308.5 83t-308.5 -83t-212.5 -221t-75 -301z" />
<glyph unicode="R" horiz-adv-x="1024" d="M0 0v1493h225q86 0 138.5 -3t125.5 -19t129 -48q92 -53 144.5 -150t52.5 -206q0 -162 -98.5 -280t-259.5 -138l471 -649h-226l-438 631h-78v-631h-186zM186 786h60q63 0 114 5.5t105.5 23t91.5 46.5t60.5 79.5t23.5 118.5q0 67 -25 117t-63.5 78t-95 45.5t-107 22.5 t-112.5 5h-52v-541z" />
<glyph unicode="S" horiz-adv-x="1136" d="M0 387l186 39q0 -122 84.5 -202.5t206.5 -80.5q118 0 196.5 86t78.5 207q0 46 -15 85.5t-37.5 67.5t-58 53t-68.5 41.5t-77 33.5l-105 45q-71 30 -123 61t-100.5 76t-74 106t-25.5 136q0 71 24 133t65.5 107.5t97.5 78.5t120.5 49.5t132.5 16.5q124 0 222.5 -58.5 t160.5 -167.5l-148 -90q-44 72 -101.5 107t-139.5 35q-96 0 -173 -59t-77 -152q0 -140 211 -213l104 -43q86 -34 149 -71.5t116 -90.5t80.5 -125t27.5 -162q0 -133 -64 -240.5t-173 -167t-240 -59.5q-180 0 -310 118.5t-153 299.5z" />
<glyph unicode="T" horiz-adv-x="1077" d="M0 1323v170h895v-170h-354v-1323h-187v1323h-354z" />
<glyph unicode="U" horiz-adv-x="1300" d="M0 553v944h186v-881q0 -471 361 -471q360 0 360 471v881h185v-944q0 -166 -63.5 -297t-188.5 -208t-293 -77t-293.5 77t-189.5 208t-64 297z" />
<glyph unicode="V" horiz-adv-x="1372" d="M0 1497h203l446 -1106l443 1106h206l-649 -1573z" />
<glyph unicode="W" horiz-adv-x="2150" d="M0 1499h203l415 -1071l422 1102l424 -1102l418 1071h203l-621 -1552l-424 1095l-422 -1095z" />
<glyph unicode="X" horiz-adv-x="1273" d="M0 0l469 782l-412 711h211l305 -545l326 545h211l-430 -711l455 -782h-209l-353 612l-366 -612h-207z" />
<glyph unicode="Y" horiz-adv-x="1271" d="M0 1493h215l365 -637l366 637h213l-485 -844v-649h-187v649z" />
<glyph unicode="Z" horiz-adv-x="1214" d="M0 0l758 1323h-652v170h953l-758 -1321h758v-172h-1059z" />
<glyph unicode="[" horiz-adv-x="512" d="M0 -385v1989h377v-166h-195v-1655h195v-168h-377z" />
<glyph unicode="\" horiz-adv-x="1015" d="M0 1724h166l803 -1724h-168z" />
<glyph unicode="]" horiz-adv-x="485" d="M0 -217h195v1655h-195v166h377v-1989h-377v168z" />
<glyph unicode="^" horiz-adv-x="1060" d="M0 610l397 883h221l398 -883h-187l-321 717l-324 -717h-184z" />
<glyph unicode="_" horiz-adv-x="1060" d="M0 -164h991v-98h-991v98z" />
<glyph unicode="`" horiz-adv-x="403" d="M-74 1368l164 88l248 -330l-86 -53z" />
<glyph unicode="a" horiz-adv-x="1150" d="M0 469q0 96 31 184t86 155.5t138 107.5t181 40q199 0 324 -182h2v154h178v-928h-178v145h-2q-58 -82 -139 -129t-177 -47q-137 0 -240 71t-153.5 183t-50.5 246zM178 465q0 -139 79.5 -238.5t213.5 -99.5q139 0 220 97.5t81 240.5q0 140 -81.5 236t-219.5 96 q-89 0 -157 -47.5t-102 -122.5t-34 -162z" />
<glyph unicode="b" horiz-adv-x="1095" d="M0 0v1720h178v-946h4q55 85 138.5 133.5t183.5 48.5q98 0 181 -40t138 -107.5t86 -155.5t31 -184q0 -134 -50 -246t-152.5 -183t-239.5 -71q-96 0 -179 48t-137 128h-4v-145h-178zM168 465q0 -140 79.5 -239t215.5 -99q139 0 219 97.5t80 240.5q0 141 -80.5 236.5 t-218.5 95.5q-134 0 -214.5 -98t-80.5 -234z" />
<glyph unicode="c" horiz-adv-x="921" d="M0 459q0 214 146 356.5t362 142.5q137 0 244 -61v-229q-108 123 -265 123q-128 0 -218.5 -97.5t-90.5 -226.5q0 -145 90 -237.5t230 -92.5q141 0 254 123v-227q-115 -62 -254 -62q-207 0 -352.5 140.5t-145.5 347.5z" />
<glyph unicode="d" horiz-adv-x="1144" d="M0 469q0 96 31 184t86 155.5t138 107.5t181 40q100 0 183.5 -48t140.5 -134h4v948h178v-1722h-178v145h-4q-57 -82 -139.5 -129t-176.5 -47q-104 0 -189.5 41t-140.5 111t-84.5 159.5t-29.5 188.5zM178 465q0 -139 79.5 -238.5t213.5 -99.5q142 0 221.5 97t79.5 241 q0 141 -81 237.5t-220 96.5q-131 0 -212 -99.5t-81 -234.5z" />
<glyph unicode="e" horiz-adv-x="1024" d="M0 455q0 145 50 256t153 177t248 66q143 0 242.5 -67t145.5 -176t46 -250v-27h-707q2 -126 79 -217.5t200 -91.5q97 0 159.5 44.5t118.5 135.5l150 -84q-65 -121 -179.5 -187.5t-250.5 -66.5q-138 0 -242.5 65.5t-158.5 175.5t-54 247zM186 567h521q-18 107 -84.5 169.5 t-171.5 62.5q-101 0 -174 -65.5t-91 -166.5z" />
<glyph unicode="f" horiz-adv-x="675" d="M0 762v164h82v452q0 365 299 365q65 0 123 -25v-180q-85 39 -119 39q-30 0 -52.5 -11.5t-35.5 -34.5t-21 -44.5t-11.5 -56t-4 -53.5t-0.5 -52v-399h244v-164h-244v-762h-178v762h-82z" />
<glyph unicode="g" horiz-adv-x="1157" d="M0 469q0 129 52 239.5t152.5 179t229.5 68.5q203 0 326 -186h2v158h178v-910q0 -101 -12 -180t-43 -149.5t-81.5 -117t-129.5 -73t-185 -26.5q-197 0 -321 113t-127 306h180q0 -123 76.5 -192.5t200.5 -69.5q64 0 111.5 18t76.5 47.5t46 74.5t23.5 92t6.5 108v176h-2 q-58 -81 -140 -128.5t-176 -47.5q-104 0 -189.5 41t-140.5 111t-84.5 159.5t-29.5 188.5zM178 465q0 -139 79.5 -238.5t213.5 -99.5q139 0 220 97.5t81 240.5q0 140 -81.5 236t-219.5 96q-89 0 -157 -47.5t-102 -122.5t-34 -162z" />
<glyph unicode="h" horiz-adv-x="944" d="M0 0v1718h178v-915h4q40 72 116 111.5t165 39.5q95 0 160.5 -30t101.5 -86.5t51 -126t15 -160.5v-551h-179v532q0 67 -6.5 109t-27 80.5t-62.5 56t-108 17.5q-37 0 -68 -7.5t-53.5 -19t-40 -32.5t-29 -39t-19 -48.5t-11.5 -51.5t-6 -57t-2.5 -56.5t-0.5 -57.5v-426h-178z " />
<glyph unicode="i" horiz-adv-x="403" d="M0 1352q0 51 36.5 88t84.5 37q51 0 88 -37t37 -88t-37 -86t-88 -35q-48 0 -84.5 35.5t-36.5 85.5zM33 0v926h178v-926h-178z" />
<glyph unicode="j" horiz-adv-x="438" d="M0 1350q0 50 36.5 86.5t84.5 36.5q51 0 88 -36t37 -87t-37 -87t-88 -36q-48 0 -84.5 36.5t-36.5 86.5zM33 -532v1456h178v-1456h-178z" />
<glyph unicode="k" horiz-adv-x="872" d="M0 0v1718h178v-1138l348 346h236l-395 -383l436 -543h-234l-329 422l-62 -62v-360h-178z" />
<glyph unicode="l" horiz-adv-x="389" d="M0 0v1718h178v-1718h-178z" />
<glyph unicode="m" horiz-adv-x="1484" d="M0 0v926h178v-115h4q40 64 106 103.5t140 39.5q174 0 266 -163q43 75 120.5 119t166.5 44q305 0 305 -399v-555h-178v524q0 54 -5.5 94.5t-21.5 84.5t-52 68t-91 24q-47 0 -82.5 -14.5t-57 -42.5t-35.5 -58t-20 -73t-8 -75.5t-2 -76.5v-455h-178v492q0 38 -1.5 65.5 t-6.5 66t-16.5 66t-29.5 53t-48.5 39t-69.5 13.5t-70.5 -11.5t-52.5 -30t-36.5 -47t-24 -56.5t-13.5 -64.5t-6.5 -65.5t-1.5 -65v-455h-178z" />
<glyph unicode="n" horiz-adv-x="978" d="M0 0v926h178v-123h4q40 72 116 111.5t165 39.5q95 0 160.5 -30t101.5 -86.5t51 -126t15 -160.5v-551h-179v532q0 67 -6.5 109t-27 80.5t-62.5 56t-108 17.5q-37 0 -68 -7.5t-53.5 -19t-40 -32.5t-29 -39t-19 -48.5t-11.5 -51.5t-6 -57t-2.5 -56.5t-0.5 -57.5v-426h-178z " />
<glyph unicode="o" horiz-adv-x="1146" d="M0 465q0 208 144 350.5t352 142.5q136 0 249 -64.5t178.5 -178t65.5 -250.5q0 -209 -143 -351.5t-350 -142.5q-136 0 -250 65t-180 178.5t-66 250.5zM178 465q0 -132 93 -227t225 -95q131 0 223 95t92 227q0 133 -92 227t-223 94q-133 0 -225.5 -94t-92.5 -227z" />
<glyph unicode="p" horiz-adv-x="1087" d="M0 -532v1460h178v-156h4q57 86 139.5 134t182.5 48q98 0 181 -40t139 -107.5t87 -155.5t31 -184q0 -99 -29.5 -188.5t-84.5 -159.5t-140.5 -111t-189.5 -41q-96 0 -178.5 47t-137.5 129h-4v-675h-178zM168 463q0 -140 79.5 -239t215.5 -99q139 0 220 97.5t81 240.5 q0 141 -81.5 237.5t-219.5 96.5q-134 0 -214.5 -99t-80.5 -235z" />
<glyph unicode="q" horiz-adv-x="1095" d="M0 467q0 129 52 239.5t152.5 179t229.5 68.5q201 0 326 -182h2v154h178v-1456h-178v673h-2q-58 -81 -140 -128.5t-176 -47.5q-104 0 -189.5 41t-140.5 111t-84.5 159.5t-29.5 188.5zM178 463q0 -139 79.5 -238.5t213.5 -99.5q139 0 220 97.5t81 240.5q0 140 -81.5 236 t-219.5 96q-89 0 -157 -47.5t-102 -122.5t-34 -162z" />
<glyph unicode="r" horiz-adv-x="737" d="M0 0v926h178v-148h6q33 81 99 128.5t153 47.5q81 0 148 -45l-82 -164q-42 39 -107 39q-56 0 -96.5 -20.5t-63.5 -51t-36 -77t-17 -87.5t-4 -93v-455h-178z" />
<glyph unicode="s" horiz-adv-x="768" d="M0 174l154 70q60 -119 165 -119q60 0 102 36.5t42 94.5q0 34 -16 55.5t-50 44.5l-176 93q-45 25 -72 43.5t-54 46.5t-39.5 63.5t-12.5 81.5q0 114 80 192t194 78q84 0 149.5 -42.5t102.5 -118.5l-143 -80q-18 36 -50 59t-69 23q-39 0 -68.5 -26t-29.5 -64q0 -15 5.5 -29 t12.5 -24.5t22.5 -23t26.5 -20t34 -19t35.5 -17t40.5 -18t40 -17.5q46 -21 80 -42.5t66.5 -52.5t49.5 -73.5t17 -94.5q0 -130 -94 -218.5t-226 -88.5q-103 0 -193 56t-126 151z" />
<glyph unicode="t" horiz-adv-x="563" d="M0 762v164h96v356h178v-356h175v-164h-175v-762h-178v762h-96z" />
<glyph unicode="u" horiz-adv-x="972" d="M0 391v533h178v-512q0 -48 5.5 -87t19.5 -76.5t37.5 -62.5t61.5 -40t89 -15q64 0 107.5 22t66 63t32 88t9.5 108v512h178v-533q0 -198 -98 -312t-295 -114t-294 113.5t-97 312.5z" />
<glyph unicode="v" horiz-adv-x="1024" d="M0 924h201l266 -578l266 578h199l-465 -959z" />
<glyph unicode="w" horiz-adv-x="1536" d="M0 924h203l268 -590l272 641l273 -641l268 590h203l-471 -959l-273 619l-272 -619z" />
<glyph unicode="x" horiz-adv-x="1126" d="M0 -4l414 502l-332 426h209l221 -299l240 299h217l-342 -426l399 -502h-209l-305 377l-295 -377h-217z" />
<glyph unicode="y" horiz-adv-x="1044" d="M0 922h207l313 -588l291 588h201l-750 -1457h-203l365 687z" />
<glyph unicode="z" horiz-adv-x="1046" d="M0 -2l629 762h-523v164h867l-627 -760h602v-166h-948z" />
<glyph unicode="{" horiz-adv-x="530" d="M0 537v145q73 32 111.5 109t38.5 190v360q0 110 57.5 186.5t109.5 76.5h156v-166h-80q-18 0 -30 -7t-18 -16.5t-9 -28.5t-3.5 -32t-0.5 -39v-365q0 -65 -13.5 -122t-31.5 -92.5t-42 -65.5t-38 -42t-27 -20q16 -9 36 -29t49 -59.5t48 -105.5t19 -146v-364q0 -26 0.5 -39 t3.5 -32t9 -28.5t18 -16.5t30 -7h80v-168h-156q-52 0 -109.5 76.5t-57.5 185.5v363q0 111 -38.5 189t-111.5 110z" />
<glyph unicode="|" horiz-adv-x="245" d="M0 -426v1985h170v-1985h-170z" />
<glyph unicode="}" horiz-adv-x="552" d="M0 -219h80q18 0 30 7t18 16.5t9 28.5t3.5 32t0.5 39v364q0 65 13.5 122t31.5 92.5t41.5 65t37.5 41.5t26 19q-13 9 -26 20.5t-37 42t-41.5 65.5t-31.5 92t-14 122v365q0 26 -0.5 39t-3.5 32t-9 28.5t-18 16.5t-30 7h-80v166h156q52 0 110 -76.5t58 -186.5v-360 q0 -235 149 -299v-145q-74 -32 -111.5 -109.5t-37.5 -189.5v-363q0 -108 -58 -185t-110 -77h-156v168z" />
<glyph unicode="~" horiz-adv-x="1060" d="M0 449q1 1 21.5 30.5t24.5 34.5t24 31.5t27.5 34t27 28.5t31.5 28.5t32 21.5t36 19t37 10t42 5q107 0 242 -100q16 -12 46 -36t45.5 -35t36.5 -21.5t38 -10.5q48 0 80 35.5t80 116.5q2 5 3.5 7.5t4 6.5t4.5 7l133 -101q-131 -242 -303 -242q-79 0 -228 103 q-16 10 -42.5 28.5t-41.5 28.5t-34 21.5t-33.5 16.5t-26.5 5q-48 0 -89 -39.5t-93 -122.5z" />
<glyph unicode="&#xa1;" horiz-adv-x="262" d="M-27 891q0 46 34 80.5t81 34.5t81 -34.5t34 -80.5q0 -47 -34 -81t-81 -34t-81 34t-34 81zM0 -512v1151h178v-1151h-178z" />
<glyph unicode="&#xa8;" horiz-adv-x="679" d="M-2 1251q0 50 35 84.5t86 34.5q49 0 84 -35t35 -84q0 -51 -34.5 -86t-84.5 -35q-51 0 -86 35t-35 86zM416 1251q0 49 36 84t87 35q49 0 83.5 -34.5t34.5 -84.5q0 -51 -34 -86t-84 -35q-51 0 -87 35t-36 86z" />
<glyph unicode="&#xa9;" horiz-adv-x="1630" d="M0 752q0 214 103.5 392.5t282.5 282t394 103.5q161 0 306 -61t249.5 -165t166 -248t61.5 -304t-61.5 -304.5t-166 -249t-249.5 -166t-306 -61.5q-214 0 -393.5 104t-283 283.5t-103.5 393.5zM127 752q0 -135 52.5 -256.5t140.5 -208.5t208.5 -138t251.5 -51q132 0 253 51 t209.5 138t141 208.5t52.5 256.5q0 181 -89 331t-239.5 235t-327.5 85q-176 0 -326 -85t-238.5 -235t-88.5 -331zM379 758q0 196 117 322t315 126q140 0 240.5 -79.5t126.5 -215.5h-121q-19 81 -84 124.5t-164 43.5q-62 0 -113.5 -18t-86 -48.5t-58.5 -71.5t-34.5 -86 t-10.5 -93q0 -143 81 -234.5t226 -91.5q98 0 160 45t84 131h121q-18 -138 -122 -220.5t-243 -82.5q-129 0 -229 60.5t-152.5 162.5t-52.5 226z" />
<glyph unicode="&#xab;" horiz-adv-x="915" d="M0 635l360 475l111 -80l-295 -395l295 -379l-111 -82zM381 635l360 475l111 -80l-295 -395l295 -379l-111 -82z" />
<glyph unicode="&#xad;" horiz-adv-x="507" d="M0 557v148h434v-148h-434z" />
<glyph unicode="&#xae;" horiz-adv-x="1648" d="M0 750q0 214 103.5 392.5t282.5 282t394 103.5q161 0 306 -61t249.5 -165t166 -248t61.5 -304t-61.5 -304.5t-166 -249t-249.5 -166t-306 -61.5q-214 0 -393.5 104t-283 283.5t-103.5 393.5zM127 750q0 -135 52.5 -256.5t140.5 -208.5t208.5 -138t251.5 -51q132 0 253 51 t209.5 138t141 208.5t52.5 256.5q0 181 -89 331t-239.5 235t-327.5 85q-176 0 -326 -85t-238.5 -235t-88.5 -331zM479 305v877h369q301 0 301 -232q0 -63 -19.5 -110t-54 -74.5t-74.5 -41t-86 -15.5l224 -404h-146l-223 404h-164v-404h-127zM606 836h135q14 0 40.5 -0.5 t43 -0.5t41.5 0.5t41.5 3t36 7t32 12t24 18t17 26t5.5 34.5q0 40 -15 65t-46 36t-60 14.5t-76 3.5h-219v-219z" />
<glyph unicode="&#xaf;" horiz-adv-x="759" d="M0 1241v135h715v-135h-715z" />
<glyph unicode="&#xb4;" horiz-adv-x="438" d="M-4 1122l248 330l164 -88l-326 -295z" />
<glyph unicode="&#xb6;" horiz-adv-x="1058" d="M2 985q-9 120 42.5 237t154.5 194t229 77h559v-166h-121v-1632h-168v1632h-123v-1632h-165v864q-170 0 -282.5 114t-125.5 312z" />
<glyph unicode="&#xb8;" horiz-adv-x="374" d="M0 -303l172 272l141 -57l-209 -268z" />
<glyph unicode="&#xbb;" horiz-adv-x="901" d="M0 256l295 379l-295 395l111 80l360 -475l-360 -461zM381 256l295 379l-295 395l111 80l360 -475l-360 -461z" />
<glyph unicode="&#xbf;" horiz-adv-x="759" d="M0 -182q0 71 27.5 136.5t78.5 108.5q11 9 22.5 17.5t26.5 17t25 14t29.5 13.5t27.5 11.5t30.5 11t27.5 9.5t30 10t27 9q146 41 146 143q0 60 -40 102t-100 42q-62 0 -102.5 -45t-38.5 -109h-180q-6 128 93.5 224t227.5 96q133 0 226.5 -92.5t93.5 -225.5q0 -54 -15 -98 t-36.5 -72.5t-57.5 -53t-66 -38t-75 -29.5q-10 -4 -36.5 -13t-37 -13.5t-33.5 -13.5t-33.5 -15t-29 -16.5t-27 -19.5t-20.5 -22.5t-17.5 -27t-9.5 -31t-4 -36.5q0 -80 51.5 -128.5t130.5 -48.5q70 0 120 50.5t50 121.5q0 12 -10 62h187l2 -64q6 -94 -44.5 -172.5 t-134 -121.5t-176.5 -43q-151 0 -253.5 100.5t-102.5 249.5zM244 891q0 46 33.5 80.5t80.5 34.5t81 -34.5t34 -80.5q0 -47 -34 -81t-81 -34t-80.5 34t-33.5 81z" />
<glyph unicode="&#xc0;" horiz-adv-x="1544" d="M0 0l713 1559l714 -1559h-200l-170 375h-686l-170 -375h-201zM428 1886l164 86l248 -327l-86 -54zM449 545h530l-266 606z" />
<glyph unicode="&#xc1;" horiz-adv-x="1544" d="M0 0l713 1559l714 -1559h-200l-170 375h-686l-170 -375h-201zM449 545h530l-266 606zM586 1645l248 327l165 -86l-325 -295z" />
<glyph unicode="&#xc2;" horiz-adv-x="1544" d="M0 0l713 1559l714 -1559h-200l-170 375h-686l-170 -375h-201zM397 1686l314 286l319 -286l-117 -91l-202 189l-199 -189zM449 545h530l-266 606z" />
<glyph unicode="&#xc3;" horiz-adv-x="1544" d="M0 0l713 1559l714 -1559h-200l-170 375h-686l-170 -375h-201zM336 1733l4 10q26 36 43.5 57.5t44.5 46t58.5 36t68.5 11.5q80 0 176 -51q97 -55 143 -55q65 0 127 96l93 -78q-36 -73 -96 -117t-138 -44q-64 0 -164 51q-1 1 -16.5 8t-18 8t-16.5 7t-18.5 7.5t-16 5.5 t-18 5.5t-16.5 4t-18.5 3t-16.5 0.5q-34 0 -65 -27.5t-48 -62.5zM449 545h530l-266 606z" />
<glyph unicode="&#xc4;" horiz-adv-x="1544" d="M0 0l713 1559l714 -1559h-200l-170 375h-686l-170 -375h-201zM385 1776q0 50 35 84t86 34q50 0 84.5 -34.5t34.5 -83.5q0 -51 -34.5 -86t-84.5 -35q-51 0 -86 35t-35 86zM449 545h530l-266 606zM803 1776q0 50 35 84t86 34q50 0 84 -34t34 -84q0 -51 -34 -86t-84 -35 q-51 0 -86 35t-35 86z" />
<glyph unicode="&#xc5;" horiz-adv-x="1544" d="M0 0l713 1559l714 -1559h-200l-170 375h-686l-170 -375h-201zM449 545h530l-266 606zM535 1774q0 74 52.5 127t125.5 53q76 0 129 -53t53 -127q0 -75 -53 -127t-129 -52q-74 0 -126 52t-52 127zM625 1774q0 -38 26 -64.5t62 -26.5q38 0 65 26.5t27 64.5q0 37 -27 63.5 t-65 26.5q-35 0 -61.5 -26.5t-26.5 -63.5z" />
<glyph unicode="&#xc7;" horiz-adv-x="1366" d="M2 741q0 163 63 309.5t169.5 251.5t253.5 166.5t309 61.5q211 0 377 -103v-215q-78 70 -183.5 108t-212.5 38q-164 0 -300 -83t-213 -223t-77 -304q0 -162 76.5 -301.5t212 -222.5t297.5 -83q110 0 213.5 40.5t186.5 115.5v-221q-85 -50 -189.5 -77.5t-204.5 -27.5 q-157 0 -300.5 60t-248.5 162.5t-167 245.5t-62 302zM442 -303l172 272l142 -57l-209 -268z" />
<glyph unicode="&#xc8;" d="M0 0v1495h803v-170h-617v-418h598v-172h-598v-565h617v-170h-803zM129 1886l164 86l248 -327l-86 -54z" />
<glyph unicode="&#xc9;" d="M0 0v1495h803v-170h-617v-418h598v-172h-598v-565h617v-170h-803zM248 1645l248 327l163 -86l-323 -295z" />
<glyph unicode="&#xca;" d="M0 0v1495h803v-170h-617v-418h598v-172h-598v-565h617v-170h-803zM82 1686l315 286l318 -286l-117 -91l-201 189l-200 -189z" />
<glyph unicode="&#xcb;" d="M0 0v1495h803v-170h-617v-418h598v-172h-598v-565h617v-170h-803zM70 1776q0 50 34.5 84t85.5 34q50 0 84.5 -34.5t34.5 -83.5q0 -51 -34.5 -86t-84.5 -35q-51 0 -85.5 35t-34.5 86zM487 1776q0 50 35 84t86 34q50 0 84.5 -34.5t34.5 -83.5q0 -51 -34.5 -86t-84.5 -35 q-51 0 -86 35t-35 86z" />
<glyph unicode="&#xcc;" horiz-adv-x="370" d="M-98 1886l164 86l247 -327l-86 -54zM74 0v1495h186v-1495h-186z" />
<glyph unicode="&#xcd;" horiz-adv-x="378" d="M0 1640l248 328l164 -86l-324 -295zM53 -4v1495h187v-1495h-187z" />
<glyph unicode="&#xce;" horiz-adv-x="409" d="M-137 1686l315 286l320 -286l-117 -91l-203 189l-201 -189zM86 0v1495h186v-1495h-186z" />
<glyph unicode="&#xcf;" horiz-adv-x="409" d="M-154 1776q0 50 35 84t86 34q50 0 84.5 -34.5t34.5 -83.5q0 -51 -34.5 -86t-84.5 -35q-51 0 -86 35t-35 86zM82 0v1495h186v-1495h-186zM264 1776q0 50 35 84t86 34q50 0 84.5 -34.5t34.5 -83.5q0 -51 -34.5 -86t-84.5 -35q-51 0 -86 35t-35 86z" />
<glyph unicode="&#xd1;" horiz-adv-x="1437" d="M0 2v1567l1122 -1176v1104h187v-1556l-1123 1175v-1114h-186zM276 1735l5 10q26 36 43.5 57.5t44.5 46t58.5 36t68.5 11.5q80 0 176 -51q97 -55 143 -55q65 0 127 96l92 -78q-36 -73 -95.5 -117t-137.5 -44q-64 0 -164 51q-94 42 -134 48q-12 1 -22 1q-34 0 -64.5 -27.5 t-47.5 -62.5z" />
<glyph unicode="&#xd2;" horiz-adv-x="1712" d="M0 750q0 158 62.5 302t167.5 249t249.5 167t302.5 62t303 -62t250.5 -167t168.5 -249.5t63 -301.5q0 -163 -62.5 -308.5t-168 -248t-250 -162.5t-304.5 -60t-304 60t-249 162.5t-167 248t-62 308.5zM186 750q0 -166 81.5 -306t218.5 -219.5t296 -79.5q160 0 297.5 79.5 t219 219.5t81.5 306q0 123 -44.5 233.5t-122 192.5t-190 130t-241.5 48q-171 0 -308.5 -82t-212.5 -220t-75 -302zM518 1888l164 86l248 -327l-88 -54z" />
<glyph unicode="&#xd3;" horiz-adv-x="1712" d="M-4 743q0 158 62.5 302.5t167.5 249t249.5 167t302.5 62.5t303 -62.5t250.5 -167t168.5 -249.5t63 -302q0 -163 -62.5 -308t-168 -248t-250 -162.5t-304.5 -59.5t-304 59.5t-249 162.5t-167 248t-62 308zM182 743q0 -166 81.5 -305.5t218.5 -219t296 -79.5 q160 0 297.5 79.5t219 219t81.5 305.5q0 164 -75 302t-213 220.5t-310 82.5q-171 0 -308.5 -82.5t-212.5 -220.5t-75 -302zM633 1640l248 328l163 -86l-325 -295z" />
<glyph unicode="&#xd4;" horiz-adv-x="1761" d="M0 743q0 158 62.5 302.5t167.5 249t249.5 167t302.5 62.5t303 -62.5t250.5 -167t168.5 -249.5t63 -302q0 -163 -62.5 -308t-168 -248t-250 -162.5t-304.5 -59.5t-304 59.5t-249 162.5t-167 248t-62 308zM186 743q0 -166 81.5 -305.5t218.5 -219t296 -79.5 q160 0 297.5 79.5t219 219t81.5 305.5q0 164 -75 302t-213 220.5t-310 82.5q-171 0 -308.5 -82.5t-212.5 -220.5t-75 -302zM465 1681l315 287l320 -287l-117 -90l-203 189l-198 -189z" />
<glyph unicode="&#xd5;" horiz-adv-x="1712" d="M0 743q0 158 62.5 302.5t167.5 249t249.5 167t302.5 62.5t303 -62.5t250.5 -167t168.5 -249.5t63 -302q0 -163 -62.5 -308t-168 -248t-250 -162.5t-304.5 -59.5t-304 59.5t-249 162.5t-167 248t-62 308zM186 743q0 -166 81.5 -305.5t218.5 -219t296 -79.5 q160 0 297.5 79.5t219 219t81.5 305.5q0 164 -75 302t-213 220.5t-310 82.5q-171 0 -308.5 -82.5t-212.5 -220.5t-75 -302zM403 1729l7 10q32 47 57 75.5t67 52t91 23.5q80 0 176 -51q97 -55 143 -55q65 0 127 96l92 -78q-36 -73 -95.5 -117.5t-137.5 -44.5q-62 0 -164 52 q-3 1 -25.5 11t-28 12.5t-24 9.5t-28 9t-24 4.5t-26.5 2.5q-34 0 -64.5 -27.5t-47.5 -62.5z" />
<glyph unicode="&#xd6;" horiz-adv-x="1712" d="M4 745q0 158 62.5 302.5t167.5 249t249.5 167t302.5 62.5t303 -62.5t250.5 -167t168.5 -249.5t63 -302q0 -163 -62.5 -308t-168 -248t-250 -162.5t-304.5 -59.5t-304 59.5t-249 162.5t-167 248t-62 308zM190 745q0 -166 81.5 -305.5t218.5 -219t296 -79.5 q160 0 297.5 79.5t219 219t81.5 305.5q0 164 -75 302t-213 220.5t-310 82.5q-171 0 -308.5 -82.5t-212.5 -220.5t-75 -302zM459 1774q0 50 35 84t86 34q50 0 84 -34t34 -84q0 -51 -34 -86t-84 -35q-51 0 -86 35t-35 86zM877 1774q0 50 34.5 84t85.5 34q50 0 84.5 -34.5 t34.5 -83.5q0 -51 -34.5 -86t-84.5 -35q-51 0 -85.5 35t-34.5 86z" />
<glyph unicode="&#xd9;" horiz-adv-x="1232" d="M0 547v946h186v-883q0 -469 361 -469q360 0 360 469v883h187v-946q0 -165 -64 -295.5t-189.5 -207.5t-293.5 -77q-167 0 -292.5 77t-190 207.5t-64.5 295.5zM281 1884l165 86l248 -328l-88 -53z" />
<glyph unicode="&#xda;" horiz-adv-x="1232" d="M0 545v946h186v-883q0 -469 361 -469q360 0 360 469v883h187v-946q0 -165 -64 -295.5t-189.5 -207.5t-293.5 -77q-167 0 -292.5 77t-190 207.5t-64.5 295.5zM399 1640l248 328l166 -86l-326 -295z" />
<glyph unicode="&#xdb;" horiz-adv-x="1232" d="M0 545v946h186v-883q0 -469 361 -469q360 0 360 469v883h187v-946q0 -165 -64 -295.5t-189.5 -207.5t-293.5 -77q-167 0 -292.5 77t-190 207.5t-64.5 295.5zM229 1681l316 287l319 -287l-116 -90l-203 189l-201 -189z" />
<glyph unicode="&#xdc;" horiz-adv-x="1232" d="M0 547v946h186v-883q0 -469 361 -469q360 0 360 469v883h187v-946q0 -165 -64 -295.5t-189.5 -207.5t-293.5 -77q-167 0 -292.5 77t-190 207.5t-64.5 295.5zM217 1774q0 49 35.5 83.5t85.5 34.5t85.5 -34.5t35.5 -83.5q0 -51 -35.5 -86t-85.5 -35t-85.5 35t-35.5 86z M637 1774q0 50 35 84t86 34q50 0 84.5 -34.5t34.5 -83.5q0 -51 -34.5 -86t-84.5 -35q-51 0 -86 35t-35 86z" />
<glyph unicode="&#xdd;" horiz-adv-x="1181" d="M0 1495h213l369 -639l366 639h213l-487 -844v-651h-187v651zM494 1645l247 327l164 -86l-323 -295z" />
<glyph unicode="&#xe0;" horiz-adv-x="1157" d="M0 469q0 95 31 183t86.5 155.5t139 108t181.5 40.5q100 0 182.5 -48t139.5 -134h4v154h178v-928h-178v145h-4q-56 -82 -137.5 -129t-178.5 -47q-137 0 -240 70.5t-153.5 182.5t-50.5 247zM178 465q0 -140 79 -239t214 -99q141 0 221 97t80 241q0 141 -80.5 236.5 t-220.5 95.5q-89 0 -157 -47.5t-102 -122.5t-34 -162zM264 1368l164 88l248 -330l-88 -53z" />
<glyph unicode="&#xe1;" horiz-adv-x="1110" d="M0 469q0 95 31 183t86.5 155.5t139 108t181.5 40.5q100 0 182.5 -48t139.5 -134h4v154h178v-928h-178v145h-4q-56 -82 -137.5 -129t-178.5 -47q-137 0 -240 70.5t-153.5 182.5t-50.5 247zM178 465q0 -140 79 -239t214 -99q141 0 221 97t80 241q0 141 -80.5 236.5 t-220.5 95.5q-89 0 -157 -47.5t-102 -122.5t-34 -162zM373 1126l248 330l163 -88l-323 -295z" />
<glyph unicode="&#xe2;" horiz-adv-x="1110" d="M0 469q0 95 31 183t86.5 155.5t139 108t181.5 40.5q100 0 182.5 -48t139.5 -134h4v154h178v-928h-178v145h-4q-56 -82 -137.5 -129t-178.5 -47q-137 0 -240 70.5t-153.5 182.5t-50.5 247zM178 465q0 -140 79 -239t214 -99q141 0 221 97t80 241q0 141 -80.5 236.5 t-220.5 95.5q-89 0 -157 -47.5t-102 -122.5t-34 -162zM182 1167l316 289l319 -289l-117 -90l-202 191l-201 -191z" />
<glyph unicode="&#xe3;" horiz-adv-x="1110" d="M0 469q0 95 31 183t86.5 155.5t139 108t181.5 40.5q100 0 182.5 -48t139.5 -134h4v154h178v-928h-178v145h-4q-56 -82 -137.5 -129t-178.5 -47q-137 0 -240 70.5t-153.5 182.5t-50.5 247zM121 1214l6 11q24 35 42 57.5t44.5 46.5t58 35.5t68.5 11.5q78 0 178 -51 q97 -55 141 -55q69 0 127 96l95 -78q-38 -74 -97 -118t-137 -44q-64 0 -166 52q-100 49 -153 49q-35 0 -66.5 -27.5t-48.5 -62.5zM178 465q0 -140 79 -239t214 -99q141 0 221 97t80 241q0 141 -80.5 236.5t-220.5 95.5q-89 0 -157 -47.5t-102 -122.5t-34 -162z" />
<glyph unicode="&#xe4;" horiz-adv-x="1110" d="M0 469q0 95 31 183t86.5 155.5t139 108t181.5 40.5q100 0 182.5 -48t139.5 -134h4v154h178v-928h-178v145h-4q-56 -82 -137.5 -129t-178.5 -47q-137 0 -240 70.5t-153.5 182.5t-50.5 247zM170 1257q0 50 35 84.5t86 34.5q49 0 84 -35t35 -84q0 -51 -34.5 -85.5 t-84.5 -34.5q-51 0 -86 34.5t-35 85.5zM178 465q0 -140 79 -239t214 -99q141 0 221 97t80 241q0 141 -80.5 236.5t-220.5 95.5q-89 0 -157 -47.5t-102 -122.5t-34 -162zM588 1257q0 49 35.5 84t85.5 35t85 -35t35 -84q0 -51 -35 -85.5t-85 -34.5t-85.5 34.5t-35.5 85.5z" />
<glyph unicode="&#xe5;" horiz-adv-x="1110" d="M0 469q0 95 31 183t86.5 155.5t139 108t181.5 40.5q100 0 182.5 -48t139.5 -134h4v154h178v-928h-178v145h-4q-56 -82 -137.5 -129t-178.5 -47q-137 0 -240 70.5t-153.5 182.5t-50.5 247zM178 465q0 -140 79 -239t214 -99q141 0 221 97t80 241q0 141 -80.5 236.5 t-220.5 95.5q-89 0 -157 -47.5t-102 -122.5t-34 -162zM322 1274q0 75 51.5 128.5t126.5 53.5t127.5 -53.5t52.5 -128.5q0 -74 -52.5 -126t-127.5 -52t-126.5 52t-51.5 126zM410 1274q0 -36 27 -62t63 -26q37 0 63.5 25.5t26.5 62.5q0 38 -26.5 65t-63.5 27q-36 0 -63 -27 t-27 -65z" />
<glyph unicode="&#xe7;" horiz-adv-x="921" d="M0 457q0 214 146 356.5t362 142.5q139 0 246 -61v-231q-109 124 -267 124q-129 0 -219 -96.5t-90 -226.5q0 -143 90.5 -236.5t231.5 -93.5q144 0 254 123v-227q-113 -62 -256 -62q-207 0 -352.5 140.5t-145.5 347.5zM229 -305l172 272l142 -59l-207 -266z" />
<glyph unicode="&#xe8;" d="M0 453q0 222 117.5 360.5t335.5 138.5q143 0 242.5 -67t145.5 -176t46 -250v-29h-709q2 -124 79.5 -215.5t201.5 -91.5q95 0 157.5 44.5t118.5 135.5l152 -86q-66 -119 -180 -185.5t-250 -66.5q-139 0 -244 65t-159 175t-54 248zM188 565h521q-18 106 -85 169t-171 63 q-102 0 -174.5 -65t-90.5 -167zM197 1364l163 88l248 -330l-86 -53z" />
<glyph unicode="&#xe9;" d="M2 455q0 222 117.5 360.5t335.5 138.5q143 0 242.5 -67t145.5 -176t46 -250v-29h-709q2 -124 79.5 -215.5t201.5 -91.5q95 0 157.5 44.5t118.5 135.5l152 -86q-66 -119 -180 -185.5t-250 -66.5q-139 0 -244 65t-159 175t-54 248zM190 567h521q-18 106 -85 169t-171 63 q-102 0 -174.5 -65t-90.5 -167zM307 1124l248 330l164 -88l-324 -295z" />
<glyph unicode="&#xea;" d="M0 453q0 222 117.5 360.5t335.5 138.5q143 0 242.5 -67t145.5 -176t46 -250v-29h-709q2 -124 79.5 -215.5t201.5 -91.5q95 0 157.5 44.5t118.5 135.5l152 -86q-66 -119 -180 -185.5t-250 -66.5q-139 0 -244 65t-159 175t-54 248zM115 1163l315 289l320 -289l-117 -90 l-203 191l-201 -191zM188 565h521q-18 106 -85 169t-171 63q-102 0 -174.5 -65t-90.5 -167z" />
<glyph unicode="&#xeb;" d="M2 455q0 222 117.5 360.5t335.5 138.5q143 0 242.5 -67t145.5 -176t46 -250v-29h-709q2 -124 79.5 -215.5t201.5 -91.5q95 0 157.5 44.5t118.5 135.5l152 -86q-66 -119 -180 -185.5t-250 -66.5q-139 0 -244 65t-159 175t-54 248zM104 1255q0 50 35 84.5t86 34.5 q49 0 84 -35t35 -84q0 -51 -34.5 -85.5t-84.5 -34.5q-51 0 -86 34.5t-35 85.5zM190 567h521q-18 106 -85 169t-171 63q-102 0 -174.5 -65t-90.5 -167zM524 1255q0 50 35 84.5t86 34.5q49 0 84 -35t35 -84q0 -51 -34.5 -85.5t-84.5 -34.5q-51 0 -86 34.5t-35 85.5z" />
<glyph unicode="&#xec;" horiz-adv-x="481" d="M-104 1368l163 88l248 -330l-86 -53zM72 0v928h178v-928h-178z" />
<glyph unicode="&#xed;" horiz-adv-x="460" d="M0 1126l248 330l164 -88l-324 -295zM57 0v928h179v-928h-179z" />
<glyph unicode="&#xee;" horiz-adv-x="460" d="M-170 1167l315 289l320 -289l-117 -90l-203 191l-200 -191zM57 0v928h179v-928h-179z" />
<glyph unicode="&#xef;" horiz-adv-x="475" d="M-115 1257q0 50 35 84.5t86 34.5q50 0 84.5 -35t34.5 -84q0 -51 -34.5 -85.5t-84.5 -34.5q-51 0 -86 34.5t-35 85.5zM125 0v928h178v-928h-178zM303 1257q0 50 35 84.5t86 34.5q50 0 84.5 -35t34.5 -84q0 -51 -34.5 -85.5t-84.5 -34.5q-51 0 -86 34.5t-35 85.5z" />
<glyph unicode="&#xf1;" horiz-adv-x="927" d="M0 0v928h178v-125h4q40 72 116 112.5t163 40.5q95 0 161.5 -30.5t102.5 -87.5t51 -126t15 -159v-553h-179v530q0 68 -6.5 110.5t-27 81.5t-62.5 57t-108 18q-37 0 -68 -7.5t-53.5 -19t-40 -32.5t-29 -39.5t-19 -49t-11.5 -52t-6 -57.5t-2.5 -56.5t-0.5 -57.5v-426h-178z M18 1214l7 11q24 35 42 57.5t44.5 46.5t58 35.5t68.5 11.5q80 0 176 -51q97 -55 143 -55q65 0 127 96l92 -78q-36 -73 -95.5 -117.5t-137.5 -44.5q-62 0 -164 52q-100 49 -156 49q-34 0 -64.5 -27.5t-47.5 -62.5z" />
<glyph unicode="&#xf2;" horiz-adv-x="1099" d="M4 463q0 137 65.5 250.5t179 178t251.5 64.5q136 0 249.5 -64.5t179.5 -178t66 -250.5q0 -138 -66 -251.5t-179.5 -178t-249.5 -64.5q-210 0 -353 142t-143 352zM182 463q0 -133 93.5 -228.5t224.5 -95.5t224 95.5t93 228.5q0 132 -92.5 226.5t-224.5 94.5t-225 -94.5 t-93 -226.5zM215 1368l164 88l248 -330l-88 -53z" />
<glyph unicode="&#xf3;" horiz-adv-x="1099" d="M0 465q0 137 65.5 250.5t179 178t251.5 64.5q136 0 249.5 -64.5t179.5 -178t66 -250.5q0 -138 -66 -251.5t-179.5 -178t-249.5 -64.5q-210 0 -353 142t-143 352zM178 465q0 -133 93.5 -228.5t224.5 -95.5t224 95.5t93 228.5q0 132 -92.5 226.5t-224.5 94.5t-225 -94.5 t-93 -226.5zM369 1128l247 330l164 -88l-323 -295z" />
<glyph unicode="&#xf4;" horiz-adv-x="1099" d="M2 463q0 137 65.5 250.5t179 178t251.5 64.5q136 0 249.5 -64.5t179.5 -178t66 -250.5q0 -138 -66 -251.5t-179.5 -178t-249.5 -64.5q-210 0 -353 142t-143 352zM180 463q0 -133 93.5 -228.5t224.5 -95.5t224 95.5t93 228.5q0 132 -92.5 226.5t-224.5 94.5t-225 -94.5 t-93 -226.5zM180 1167l316 289l319 -289l-117 -90l-202 191l-201 -191z" />
<glyph unicode="&#xf5;" horiz-adv-x="1099" d="M0 463q0 137 65.5 250.5t179 178t251.5 64.5q136 0 249.5 -64.5t179.5 -178t66 -250.5q0 -138 -66 -251.5t-179.5 -178t-249.5 -64.5q-210 0 -353 142t-143 352zM117 1214l6 11q24 35 42 57.5t44.5 46.5t58 35.5t68.5 11.5q80 0 176 -51q35 -19 53 -28t44 -18t46 -9 q69 0 127 96l95 -78q-83 -162 -236 -162q-62 0 -164 52q-100 49 -153 49q-35 0 -66.5 -27.5t-48.5 -62.5zM178 463q0 -133 93.5 -228.5t224.5 -95.5t224 95.5t93 228.5q0 132 -92.5 226.5t-224.5 94.5t-225 -94.5t-93 -226.5z" />
<glyph unicode="&#xf6;" horiz-adv-x="1099" d="M2 465q0 137 65.5 250.5t179 178t251.5 64.5q136 0 249.5 -64.5t179.5 -178t66 -250.5q0 -138 -66 -251.5t-179.5 -178t-249.5 -64.5q-210 0 -353 142t-143 352zM168 1260q0 50 35 84t86 34q50 0 84.5 -34.5t34.5 -83.5q0 -51 -34.5 -86t-84.5 -35q-51 0 -86 35t-35 86z M180 465q0 -133 93.5 -228.5t224.5 -95.5t224 95.5t93 228.5q0 132 -92.5 226.5t-224.5 94.5t-225 -94.5t-93 -226.5zM588 1260q0 50 35 84t86 34q49 0 83.5 -34t34.5 -84q0 -51 -34 -86t-84 -35q-51 0 -86 35t-35 86z" />
<glyph unicode="&#xf9;" horiz-adv-x="915" d="M0 391v533h178v-514q0 -60 9 -106.5t31.5 -87.5t66.5 -63t108 -22q51 0 89.5 15.5t61.5 40t37.5 62t19.5 75.5t5 86v514h178v-533q0 -199 -97 -312.5t-294 -113.5q-198 0 -295.5 113.5t-97.5 312.5zM106 1364l166 88l248 -330l-88 -53z" />
<glyph unicode="&#xfa;" horiz-adv-x="915" d="M0 391v533h178v-514q0 -60 9 -106.5t31.5 -87.5t66.5 -63t108 -22q51 0 89.5 15.5t61.5 40t37.5 62t19.5 75.5t5 86v514h178v-533q0 -199 -97 -312.5t-294 -113.5q-198 0 -295.5 113.5t-97.5 312.5zM266 1122l248 330l164 -88l-326 -295z" />
<glyph unicode="&#xfb;" horiz-adv-x="915" d="M0 389v533h178v-514q0 -60 9 -106.5t31.5 -87.5t66.5 -63t108 -22q51 0 89.5 15.5t61.5 40t37.5 62t19.5 75.5t5 86v514h178v-533q0 -199 -97 -312.5t-294 -113.5q-198 0 -295.5 113.5t-97.5 312.5zM76 1161l315 289l318 -289l-117 -90l-201 191l-201 -191z" />
<glyph unicode="&#xfc;" horiz-adv-x="915" d="M0 389v533h178v-512q0 -61 9.5 -108t32 -88t66 -63t107.5 -22q51 0 89.5 15t61.5 40t37.5 62.5t19.5 76.5t5 87v512h180v-533q0 -199 -97.5 -313.5t-295.5 -114.5t-295.5 114.5t-97.5 313.5zM63 1251q0 50 35 84.5t86 34.5q50 0 84.5 -35t34.5 -84q0 -51 -34.5 -86 t-84.5 -35q-51 0 -86 35t-35 86zM481 1251q0 49 36 84t87 35q50 0 84.5 -35t34.5 -84q0 -51 -34.5 -86t-84.5 -35q-51 0 -87 35t-36 86z" />
<glyph unicode="&#xfd;" horiz-adv-x="1044" d="M0 922h209l313 -588l291 588h201l-752 -1459h-203l365 691zM418 1120l248 330l165 -88l-325 -295z" />
<glyph unicode="&#xff;" horiz-adv-x="1044" d="M0 924h209l313 -588l291 588h201l-752 -1459h-203l365 689zM197 1253q0 50 34.5 84.5t85.5 34.5q49 0 84 -35t35 -84q0 -51 -34.5 -85.5t-84.5 -34.5q-51 0 -85.5 34.5t-34.5 85.5zM614 1253q0 50 35 84.5t86 34.5q49 0 84 -35t35 -84q0 -51 -34.5 -85.5t-84.5 -34.5 q-51 0 -86 34.5t-35 85.5z" />
<glyph unicode="&#x178;" horiz-adv-x="1191" d="M0 1495h213l369 -637l366 637h213l-487 -844v-651h-187v651zM276 1776q0 50 35 84t86 34q48 0 83.5 -34.5t35.5 -83.5q0 -50 -35.5 -85.5t-83.5 -35.5q-51 0 -86 35t-35 86zM694 1776q0 50 35 84t86 34q50 0 84.5 -34.5t34.5 -83.5q0 -51 -34.5 -86t-84.5 -35 q-51 0 -86 35t-35 86z" />
<glyph unicode="&#x2c6;" horiz-adv-x="661" d="M4 1161l315 289l318 -289l-117 -90l-201 191l-200 -191z" />
<glyph unicode="&#x2dc;" horiz-adv-x="833" d="M10 1214l6 11q24 35 42 57.5t44.5 46.5t58 35.5t68.5 11.5q81 0 177 -51q97 -55 143 -55q65 0 127 96l92 -78q-36 -73 -95.5 -117.5t-137.5 -44.5q-62 0 -164 52q-100 49 -156 49q-34 0 -65 -27.5t-48 -62.5z" />
<glyph unicode="&#x2000;" horiz-adv-x="987" />
<glyph unicode="&#x2001;" horiz-adv-x="1974" />
<glyph unicode="&#x2002;" horiz-adv-x="987" />
<glyph unicode="&#x2003;" horiz-adv-x="1974" />
<glyph unicode="&#x2004;" horiz-adv-x="658" />
<glyph unicode="&#x2005;" horiz-adv-x="493" />
<glyph unicode="&#x2006;" horiz-adv-x="329" />
<glyph unicode="&#x2007;" horiz-adv-x="329" />
<glyph unicode="&#x2008;" horiz-adv-x="246" />
<glyph unicode="&#x2009;" horiz-adv-x="394" />
<glyph unicode="&#x200a;" horiz-adv-x="109" />
<glyph unicode="&#x2010;" horiz-adv-x="507" d="M0 557v148h434v-148h-434z" />
<glyph unicode="&#x2011;" horiz-adv-x="507" d="M0 557v148h434v-148h-434z" />
<glyph unicode="&#x2012;" horiz-adv-x="507" d="M0 557v148h434v-148h-434z" />
<glyph unicode="&#x2013;" horiz-adv-x="1069" d="M0 553v147h991v-147h-991z" />
<glyph unicode="&#x2014;" horiz-adv-x="1628" d="M0 547v147h1466v-147h-1466z" />
<glyph unicode="&#x2018;" horiz-adv-x="452" d="M0 995l264 531l111 -45l-219 -547z" />
<glyph unicode="&#x2019;" horiz-adv-x="425" d="M0 985l217 545l158 -62l-264 -530z" />
<glyph unicode="&#x201c;" horiz-adv-x="755" d="M0 991l264 531l111 -45l-219 -547zM330 991l262 531l113 -45l-220 -547z" />
<glyph unicode="&#x201d;" horiz-adv-x="739" d="M0 985l217 545l158 -62l-264 -530zM330 985l217 545l158 -62l-265 -530z" />
<glyph unicode="&#x2022;" horiz-adv-x="802" d="M0 745q-1 157 107.5 266t265.5 109t266 -109t109 -266q0 -155 -110.5 -263.5t-264.5 -108.5t-263.5 108.5t-109.5 263.5z" />
<glyph unicode="&#x2026;" horiz-adv-x="1417" d="M0 84q0 46 34 80.5t81 34.5t80.5 -34.5t33.5 -80.5q0 -47 -33.5 -81t-80.5 -34t-81 34t-34 81zM498 84q0 46 33.5 80.5t80.5 34.5t81 -34.5t34 -80.5q0 -47 -34 -81t-81 -34t-80.5 34t-33.5 81zM958 84q0 46 34 80.5t81 34.5t82 -34.5t35 -80.5q0 -47 -35 -81t-82 -34 t-81 34t-34 81z" />
<glyph unicode="&#x202f;" horiz-adv-x="394" />
<glyph unicode="&#x2039;" horiz-adv-x="516" d="M0 633l360 475l113 -82l-297 -393l297 -381l-113 -80z" />
<glyph unicode="&#x203a;" horiz-adv-x="534" d="M0 252l295 381l-295 393l111 82l362 -475l-362 -461z" />
<glyph unicode="&#x205f;" horiz-adv-x="493" />
<glyph unicode="&#x2122;" horiz-adv-x="1851" d="M0 1366v127h674v-127h-275v-707h-125v707h-274zM827 659v834h207l240 -588l248 588h207v-834h-127v707h-5l-284 -707h-78l-279 707h-2v-707h-127z" />
<glyph unicode="&#x25fc;" horiz-adv-x="921" d="M0 0v922h922v-922h-922z" />
</font>
</defs>
</svg>
